<?xml version="1.0" standalone="no"?>
<!DOCTYPE svg PUBLIC "-//W3C//DTD SVG 20010904//EN"
 "http://www.w3.org/TR/2001/REC-SVG-20010904/DTD/svg10.dtd">
<svg version="1.0" xmlns="http://www.w3.org/2000/svg"
 width="920.000000pt" height="511.000000pt" viewBox="0 0 920.000000 511.000000"
 preserveAspectRatio="xMidYMid meet">

<g transform="translate(0.000000,511.000000) scale(0.100000,-0.100000)"
fill="#000000" stroke="none">
<path d="M4555 5048 c-308 -338 -536 -886 -607 -1458 -14 -117 -17 -514 -5
-602 l8 -58 664 0 663 0 9 98 c11 137 8 449 -6 567 -41 338 -141 672 -292 975
-107 214 -242 414 -347 513 l-29 28 -58 -63z"/>
<path d="M2014 4043 c-10 -68 11 -296 41 -442 32 -155 95 -346 176 -530 l62
-141 769 0 770 0 -22 38 c-39 65 -182 242 -279 345 -362 380 -910 681 -1381
758 -63 11 -118 19 -122 19 -4 0 -10 -21 -14 -47z"/>
<path d="M7145 4083 c-629 -86 -1328 -534 -1704 -1090 l-42 -63 770 0 769 0
10 28 c6 15 34 79 63 142 127 280 197 559 206 823 l6 167 -24 -1 c-13 -1 -37
-4 -54 -6z"/>
<path d="M2421 2693 c13 -21 43 -66 68 -101 l45 -62 2080 2 2080 3 46 57 c25
31 55 75 68 97 l23 41 -2217 0 -2216 0 23 -37z"/>
<path d="M2719 2303 c11 -20 97 -104 149 -146 l34 -27 1704 0 1705 0 47 32
c55 37 152 132 152 147 0 8 -563 11 -1900 11 -1807 0 -1900 -1 -1891 -17z"/>
<path d="M5519 1932 l-517 -2 -6 -33 c-10 -54 -26 -258 -26 -331 l0 -69 63 7
c288 32 662 181 937 374 78 55 74 51 69 55 -2 1 -236 1 -520 -1z"/>
<path d="M3190 1926 c0 -9 233 -155 324 -202 127 -65 309 -137 431 -170 100
-26 244 -54 284 -54 l24 0 -6 198 c-3 108 -9 205 -12 215 -7 16 -41 17 -526
17 -285 0 -519 -2 -519 -4z"/>
<path d="M4290 1925 c0 -3 28 -52 61 -108 73 -121 172 -257 226 -310 l39 -37
30 32 c78 85 187 239 268 381 l27 47 -326 0 c-179 0 -325 -2 -325 -5z"/>
<path d="M3730 1037 l0 -184 -54 28 c-179 90 -412 47 -549 -101 -169 -182
-169 -438 1 -621 92 -100 203 -149 335 -149 98 1 155 15 260 68 4 2 7 -8 7
-22 l0 -26 110 0 110 0 0 595 0 595 -110 0 -110 0 0 -183z m-182 -322 c35 -11
66 -30 100 -63 128 -125 100 -320 -58 -406 -42 -23 -64 -28 -114 -28 -76 1
-120 18 -176 68 -77 70 -103 155 -76 249 26 86 98 158 185 181 62 17 78 17
139 -1z"/>
<path d="M4060 1110 l0 -110 110 0 110 0 0 110 0 110 -110 0 -110 0 0 -110z"/>
<path d="M5100 1040 c0 -99 -3 -180 -7 -180 -3 0 -29 11 -57 24 -282 132 -607
-40 -658 -346 -32 -197 73 -393 260 -486 74 -36 78 -37 191 -37 120 0 117 -1
259 62 8 3 12 -4 12 -21 l0 -26 105 0 105 0 0 595 0 595 -105 0 -105 0 0 -180z
m-155 -339 c47 -21 111 -88 132 -139 22 -52 20 -138 -4 -192 -23 -51 -88 -115
-142 -137 -46 -20 -136 -20 -182 0 -94 40 -162 139 -162 236 0 68 19 116 69
171 79 87 180 109 289 61z"/>
<path d="M6993 1185 c-33 -33 -35 -39 -30 -82 11 -100 116 -135 188 -63 47 47
35 136 -22 166 -50 25 -97 18 -136 -21z m145 -11 c50 -57 11 -154 -64 -154
-49 0 -94 42 -94 89 0 90 99 132 158 65z"/>
<path d="M7030 1111 c0 -34 4 -61 10 -61 6 0 10 11 10 25 0 32 13 32 35 -1 20
-31 32 -25 15 6 -9 17 -9 24 0 30 6 4 10 18 8 31 -2 20 -10 25 -40 27 l-38 3
0 -60z m63 35 c7 -18 -1 -26 -25 -26 -11 0 -18 7 -18 20 0 23 35 28 43 6z"/>
<path d="M2335 916 c-147 -36 -270 -145 -323 -287 -83 -223 17 -468 234 -575
62 -31 86 -37 161 -41 101 -6 169 6 245 42 28 14 53 25 55 25 2 0 3 -11 3 -25
l0 -25 110 0 110 0 0 445 0 445 -110 0 -110 0 0 -34 0 -35 -43 24 c-88 49
-227 67 -332 41z m182 -201 c179 -53 250 -253 140 -397 -46 -60 -129 -101
-205 -101 -69 0 -116 19 -170 68 -56 50 -84 112 -84 183 -1 69 18 116 68 172
72 80 153 104 251 75z"/>
<path d="M5738 915 c-72 -18 -121 -43 -184 -93 -182 -144 -219 -431 -80 -619
53 -73 104 -114 192 -155 56 -26 84 -33 154 -36 94 -5 190 14 248 48 42 25 42
25 42 -5 l0 -25 110 0 110 0 0 445 0 445 -110 0 -110 0 0 -31 c0 -21 -4 -29
-12 -26 -147 65 -251 80 -360 52z m188 -200 c135 -40 214 -189 170 -322 -35
-106 -127 -175 -234 -175 -69 -1 -116 18 -172 68 -59 53 -83 106 -83 179 -1
111 70 210 175 246 65 22 81 23 144 4z"/>
<path d="M6685 916 c-27 -7 -66 -20 -86 -28 -166 -72 -214 -294 -89 -418 53
-53 128 -80 309 -110 87 -14 119 -24 137 -41 33 -31 30 -65 -8 -103 -50 -50
-153 -59 -231 -19 -30 15 -67 67 -67 96 0 15 -12 17 -115 17 -114 0 -115 0
-115 -23 0 -42 31 -114 66 -156 22 -25 63 -54 112 -78 l76 -38 145 0 c130 1
153 3 205 24 76 30 149 98 173 159 11 29 18 73 18 112 -1 139 -85 218 -275
255 -219 43 -233 47 -256 71 -66 65 26 136 157 121 64 -8 96 -31 111 -78 l11
-39 110 0 109 0 -7 37 c-16 86 -75 162 -158 203 -102 49 -225 63 -332 36z"/>
<path d="M4060 475 l0 -445 110 0 110 0 0 445 0 445 -110 0 -110 0 0 -445z"/>
</g>
</svg>
