<?xml version="1.0" standalone="no"?>
<!DOCTYPE svg PUBLIC "-//W3C//DTD SVG 20010904//EN"
 "http://www.w3.org/TR/2001/REC-SVG-20010904/DTD/svg10.dtd">
<svg version="1.0" xmlns="http://www.w3.org/2000/svg"
 width="900.000000pt" height="600.000000pt" viewBox="0 0 900.000000 600.000000"
 preserveAspectRatio="xMidYMid meet">

<g transform="translate(0.000000,600.000000) scale(0.100000,-0.100000)"
fill="#000000" stroke="none">
<path d="M2176 4579 c-205 -28 -375 -125 -482 -275 -91 -127 -134 -260 -154
-471 -25 -253 26 -498 137 -670 81 -124 242 -237 398 -279 82 -22 318 -30 409
-14 292 52 498 244 574 535 60 231 52 503 -22 714 -81 233 -242 379 -485 442
-89 23 -274 32 -375 18z m317 -307 c76 -38 109 -72 149 -159 42 -89 57 -191
58 -384 0 -283 -37 -420 -141 -513 -65 -58 -130 -80 -239 -80 -197 -1 -310 87
-366 285 -21 71 -31 417 -15 515 41 266 159 377 392 371 85 -2 103 -6 162 -35z"/>
<path d="M3946 4580 c-218 -35 -346 -126 -413 -296 -24 -62 -27 -82 -28 -194
0 -121 1 -127 32 -193 40 -85 142 -189 228 -234 33 -17 134 -57 224 -88 215
-74 281 -109 323 -172 41 -63 6 -183 -64 -216 -42 -19 -157 -37 -241 -37 -75
0 -268 31 -375 60 -40 11 -76 20 -80 20 -12 0 -45 -271 -35 -281 16 -16 301
-59 468 -70 351 -24 553 37 662 199 56 83 74 145 80 273 6 122 -9 194 -59 272
-68 107 -169 170 -393 247 -154 53 -284 121 -329 170 -64 71 -70 162 -14 226
40 45 86 58 203 57 142 -1 304 -29 467 -79 18 -5 23 14 52 179 12 72 12 78 -4
87 -10 5 -85 23 -166 40 -122 25 -179 32 -314 35 -91 2 -192 0 -224 -5z"/>
<path d="M5632 4579 c-300 -39 -449 -203 -453 -497 -1 -95 5 -120 49 -205 41
-81 130 -167 219 -215 34 -18 135 -57 224 -87 172 -59 285 -117 314 -162 41
-61 29 -148 -27 -200 -82 -77 -331 -82 -611 -11 -65 16 -120 28 -122 26 -8 -8
-37 -257 -32 -270 12 -33 355 -80 592 -82 137 -1 185 3 245 18 190 48 286 126
347 282 24 62 27 82 27 199 l1 131 -38 76 c-66 134 -164 202 -412 288 -278 95
-385 181 -385 307 0 47 37 100 87 124 42 20 61 23 160 22 124 -2 259 -22 391
-58 47 -14 87 -23 88 -22 5 5 34 157 40 209 8 65 22 56 -146 92 -203 43 -400
56 -558 35z"/>
<path d="M0 3725 l0 -825 198 2 197 3 3 313 2 312 335 0 336 0 -3 138 c-2 101
-6 137 -15 138 -7 1 -157 2 -333 3 l-320 1 0 233 0 232 374 0 c206 0 376 2
378 5 1 3 2 65 0 138 l-3 132 -575 0 -574 0 0 -825z"/>
<path d="M6926 3737 c1 -446 2 -818 3 -824 1 -10 48 -13 201 -13 l200 0 1 58
c0 70 0 1347 0 1490 l-1 102 -202 0 -203 0 1 -813z"/>
<path d="M7930 3725 l0 -825 530 0 530 0 0 58 c0 31 3 94 7 139 l6 83 -329 2
-329 3 -3 683 -2 682 -205 0 -205 0 0 -825z"/>
<path d="M3870 2144 c0 -14 -13 -56 -30 -94 -51 -117 -39 -268 28 -333 60 -59
167 -110 231 -112 51 -1 55 -2 83 -43 17 -24 35 -41 42 -39 6 3 19 8 28 12 12
5 24 -4 44 -37 33 -52 64 -88 76 -88 4 0 8 11 8 24 0 26 40 80 72 97 15 8 32
8 64 -1 40 -11 47 -11 65 6 17 15 33 18 78 16 78 -4 88 -9 95 -43 3 -17 20
-45 38 -62 l33 -32 3 32 c2 17 -8 57 -21 89 -29 68 -27 75 42 158 43 50 47 61
32 85 -6 10 -4 25 5 42 8 16 14 39 14 53 0 14 8 33 19 43 10 10 22 33 26 50 3
18 20 46 36 64 l29 31 -27 34 c-31 41 -46 39 -53 -7 -4 -30 -13 -38 -75 -72
-38 -21 -84 -51 -100 -68 -37 -35 -41 -36 -49 -6 -3 12 -18 37 -33 55 -25 29
-34 33 -85 35 -47 2 -57 5 -53 18 6 19 -68 39 -143 39 -82 0 -224 21 -342 51
-63 16 -130 29 -147 29 -29 0 -33 -3 -33 -26z m766 -149 c-9 -13 -16 -42 -16
-65 0 -22 -4 -40 -10 -40 -5 0 -10 24 -10 53 0 46 3 56 23 65 31 15 31 15 13
-13z"/>
<path d="M1720 1831 l0 -239 109 -1 c60 -1 111 2 114 6 3 4 2 23 0 41 l-5 32
-65 0 -64 0 3 73 3 72 50 1 50 1 3 36 3 37 -55 0 -56 0 0 50 0 50 65 0 65 0 0
40 0 40 -110 0 -110 0 0 -239z"/>
<path d="M2394 2060 c-57 -23 -82 -107 -50 -169 8 -15 44 -53 81 -85 77 -68
90 -88 75 -116 -21 -39 -80 -19 -80 27 0 21 -4 23 -51 23 l-51 0 6 -37 c13
-74 59 -113 134 -113 64 0 110 23 127 64 31 75 7 136 -79 205 -73 59 -96 92
-76 116 18 22 53 15 65 -13 8 -19 17 -22 53 -20 34 1 42 5 42 21 0 37 -31 85
-62 96 -36 13 -104 13 -134 1z"/>
<path d="M2934 2055 c-4 -8 -3 -26 0 -39 5 -20 13 -25 44 -28 l37 -3 3 -197 2
-198 45 0 45 0 2 198 3 197 38 3 c36 3 37 4 37 43 l0 39 -125 0 c-103 0 -127
-3 -131 -15z"/>
<path d="M5371 1883 c0 -118 5 -201 12 -223 21 -60 113 -88 196 -59 55 19 61
45 61 269 l0 200 -45 0 -45 0 0 -189 c0 -203 -3 -216 -52 -209 -23 3 -23 4
-28 198 l-5 195 -47 3 -48 3 1 -188z"/>
<path d="M6135 2061 c-48 -20 -76 -87 -60 -148 4 -17 41 -60 93 -109 83 -78
86 -83 74 -108 -8 -17 -19 -26 -36 -26 -28 0 -43 16 -48 50 -3 23 -7 25 -43
22 -22 -2 -43 -7 -47 -10 -13 -13 10 -85 35 -110 45 -45 168 -40 212 8 25 27
30 98 12 142 -10 23 -38 55 -77 85 -70 54 -98 96 -79 119 18 22 47 17 65 -11
16 -25 52 -33 87 -19 15 5 13 25 -8 77 -16 39 -122 61 -180 38z"/>
<path d="M6807 2063 c-3 -5 -8 -30 -12 -58 -4 -27 -22 -129 -41 -225 -19 -96
-34 -178 -34 -182 0 -5 20 -8 44 -8 45 0 45 0 53 43 8 38 12 42 40 45 28 3 33
0 39 -25 14 -64 13 -63 61 -63 42 0 45 2 40 23 -3 12 -19 96 -36 187 -17 91
-35 189 -41 218 l-12 52 -48 0 c-27 0 -51 -3 -53 -7z m72 -280 c1 -27 -3 -33
-20 -33 -20 0 -21 3 -15 62 4 34 10 67 14 73 7 11 21 -52 21 -102z"/>
<path d="M3440 1640 l0 -50 45 0 45 0 0 44 c0 46 -11 56 -67 56 -21 0 -23 -5
-23 -50z"/>
</g>
</svg>
