<?xml version="1.0" standalone="no"?>
<!DOCTYPE svg PUBLIC "-//W3C//DTD SVG 20010904//EN"
 "http://www.w3.org/TR/2001/REC-SVG-20010904/DTD/svg10.dtd">
<svg version="1.0" xmlns="http://www.w3.org/2000/svg"
 width="2560.000000pt" height="427.000000pt" viewBox="0 0 2560.000000 427.000000"
 preserveAspectRatio="xMidYMid meet">

<g transform="translate(0.000000,427.000000) scale(0.100000,-0.100000)"
fill="#000000" stroke="none">
<path d="M22915 4258 c-779 -68 -1490 -464 -1883 -1050 -205 -304 -312 -656
-312 -1021 0 -557 218 -1069 626 -1469 358 -351 813 -578 1340 -668 64 -11
122 -20 130 -20 12 0 14 55 14 338 l0 339 -67 12 c-507 93 -975 428 -1188 850
-149 296 -176 655 -74 966 183 553 722 962 1394 1057 117 16 414 16 535 -1
654 -90 1204 -505 1384 -1042 48 -144 61 -232 61 -409 -1 -182 -15 -271 -67
-420 -169 -479 -628 -858 -1200 -990 l-98 -22 0 -340 0 -339 48 6 c920 130
1689 716 1956 1492 73 212 81 273 81 603 0 269 -2 304 -22 394 -101 443 -335
830 -685 1132 -519 446 -1241 667 -1973 602z"/>
<path d="M17675 4234 c-16 -2 -73 -9 -125 -15 -511 -58 -1024 -271 -1410 -583
-408 -331 -677 -797 -733 -1274 l-5 -42 375 2 375 3 23 90 c117 458 488 842
1000 1034 219 82 411 119 656 128 264 9 494 -22 734 -101 256 -85 494 -224
686 -403 l46 -43 244 216 c134 119 253 225 264 235 19 19 19 19 -20 60 -56 58
-204 175 -311 247 -330 220 -703 360 -1149 428 -95 15 -577 28 -650 18z"/>
<path d="M0 2125 l0 -2025 340 0 340 0 2 1390 3 1390 769 -1230 c423 -676 771
-1230 775 -1230 13 0 393 620 388 632 -4 7 -438 706 -965 1553 l-959 1540
-347 3 -346 2 0 -2025z"/>
<path d="M3746 4128 c-144 -226 -1146 -1874 -1144 -1883 2 -7 89 -148 193
-314 159 -252 192 -299 202 -285 6 8 184 291 395 627 l383 612 3 -1393 2
-1392 340 0 340 0 0 2025 0 2025 -350 0 -350 0 -14 -22z"/>
<path d="M7200 4147 c0 -2 229 -482 510 -1068 280 -585 510 -1067 510 -1071 0
-5 -306 -8 -680 -8 -374 0 -680 2 -680 3 0 2 79 158 175 348 96 189 175 347
175 351 0 19 -365 757 -372 750 -3 -4 -354 -682 -778 -1507 -424 -825 -812
-1578 -861 -1672 l-90 -173 384 0 384 0 318 617 c175 340 320 621 324 625 3 3
460 8 1015 10 l1008 3 314 -628 314 -627 411 0 411 0 -195 382 c-106 211 -569
1122 -1027 2026 l-832 1642 -369 0 c-203 0 -369 -1 -369 -3z"/>
<path d="M10550 2125 l0 -2025 340 0 340 0 2 1511 3 1512 1393 -1512 1394
-1511 254 0 254 0 -2 249 -3 248 -1640 1777 -1640 1776 -347 0 -348 0 0 -2025z"/>
<path d="M13850 3167 l0 -982 340 -340 340 -340 0 1323 0 1322 -340 0 -340 0
0 -983z"/>
<path d="M17840 1980 l0 -340 726 0 725 0 -3 -202 c-3 -200 -3 -204 -32 -262
-107 -217 -493 -415 -939 -481 -337 -49 -688 -39 -956 29 -490 125 -888 422
-1090 815 l-52 101 -379 0 c-275 0 -380 -3 -380 -11 0 -28 76 -234 120 -328
103 -215 225 -387 400 -561 377 -378 876 -614 1495 -707 187 -28 700 -25 925
5 467 63 844 205 1139 427 211 159 341 334 408 552 l27 88 4 608 3 607 -1070
0 -1071 0 0 -340z"/>
</g>
</svg>
