<?xml version="1.0" standalone="no"?>
<!DOCTYPE svg PUBLIC "-//W3C//DTD SVG 20010904//EN"
 "http://www.w3.org/TR/2001/REC-SVG-20010904/DTD/svg10.dtd">
<svg version="1.0" xmlns="http://www.w3.org/2000/svg"
 width="1920.000000pt" height="1080.000000pt" viewBox="0 0 1920.000000 1080.000000"
 preserveAspectRatio="xMidYMid meet">

<g transform="translate(0.000000,1080.000000) scale(0.100000,-0.100000)"
fill="#000000" stroke="none">
<path d="M9690 10344 c0 -4 200 -471 354 -827 47 -109 86 -202 86 -207 0 -6
-55 -10 -135 -10 -120 0 -136 2 -142 18 -4 9 -60 143 -125 297 -66 154 -160
377 -210 495 -50 118 -95 219 -99 224 -4 4 -36 2 -71 -5 -78 -17 -40 53 -381
-724 -50 -115 -96 -213 -102 -217 -17 -13 -132 -9 -142 5 -5 6 -52 104 -103
217 -227 496 -260 565 -272 563 -15 -1 -205 -74 -326 -125 l-83 -34 1 -312 c0
-274 -1 -312 -15 -312 -8 0 -169 29 -356 65 l-341 65 -75 -66 c-82 -74 -159
-158 -227 -249 l-44 -60 56 -60 c55 -59 230 -243 574 -605 160 -169 177 -190
192 -242 9 -31 16 -60 16 -65 0 -5 -21 -10 -47 -11 -27 -1 -97 -4 -158 -7
l-110 -6 -175 208 c-231 273 -477 562 -505 592 l-23 24 -35 -22 c-50 -30 -121
-111 -151 -168 l-25 -50 82 -94 c45 -52 174 -200 285 -329 l204 -235 -149 -6
c-81 -4 -232 -7 -334 -8 -102 0 -240 -4 -307 -7 l-120 -7 -31 -81 c-101 -269
-188 -649 -209 -906 -4 -52 -7 -225 -6 -385 0 -244 4 -314 23 -445 78 -542
273 -1057 568 -1502 54 -82 69 -97 86 -93 78 17 799 93 1082 115 397 30 1118
33 1610 6 165 -9 419 -23 565 -31 733 -40 1672 -42 2099 -5 250 22 597 74 656
99 46 19 230 385 329 653 156 426 220 788 220 1253 0 280 -13 425 -61 670 -29
153 -53 214 -100 255 -53 47 -90 41 -407 -65 -358 -120 -944 -282 -1369 -379
-173 -40 -195 -8 -111 157 66 131 139 241 179 272 40 30 154 57 310 75 178 19
329 42 370 56 22 7 103 31 180 54 77 23 190 62 250 87 110 45 362 167 379 183
4 4 -1 65 -13 137 -29 175 -31 183 -43 183 -6 0 -50 -18 -97 -39 -47 -22 -205
-91 -351 -154 -146 -64 -312 -136 -370 -162 -295 -131 -427 -154 -446 -78 -16
63 30 199 118 348 148 250 212 337 258 354 18 6 82 8 153 6 388 -13 557 -16
556 -8 0 4 -28 64 -62 133 l-62 125 -505 8 c-277 5 -506 10 -508 12 -3 2 70
128 162 279 91 151 169 281 171 288 5 12 -163 168 -180 168 -5 0 -675 -1006
-702 -1054 -12 -22 -15 -18 -178 294 -65 124 -126 240 -137 258 -11 18 -19 34
-17 36 2 1 144 105 314 231 171 126 353 260 405 299 l96 70 -97 73 -97 73
-133 -76 c-287 -164 -396 -228 -437 -255 -24 -16 -45 -29 -47 -29 -2 0 -24
-13 -48 -30 -25 -16 -47 -30 -50 -30 -3 0 -41 66 -83 148 -43 81 -95 179 -116
217 -21 39 -79 148 -129 243 -50 95 -96 175 -103 177 -17 6 -296 14 -296 9z
m-223 -737 c22 -22 144 -474 138 -515 -2 -20 -5 -165 -6 -322 -1 -157 -4 -309
-6 -337 l-5 -53 -158 -95 c-148 -89 -161 -95 -213 -95 -58 0 -71 8 -79 50 -3
14 -28 122 -57 242 -57 243 -64 339 -36 501 32 184 144 439 252 574 l58 73 50
-6 c28 -3 55 -11 62 -17z m-1114 -137 l84 -31 8 -135 c3 -75 5 -137 3 -139 -2
-2 -44 7 -93 20 l-90 23 -3 146 c-1 80 0 146 2 146 3 0 43 -14 89 -30z m-416
-424 c2 -2 -1 -79 -7 -172 -5 -93 -11 -207 -13 -254 -2 -47 -7 -83 -11 -80 -8
4 -310 311 -478 484 l-57 58 51 47 51 47 231 -63 c126 -35 231 -65 233 -67z
m542 -186 l54 0 -7 -202 -7 -203 -49 -102 -49 -103 -71 0 c-48 0 -72 4 -74 13
-3 6 -7 147 -10 311 l-5 299 82 -6 c45 -4 106 -7 136 -7z m2850 -287 c20 -5
22 -11 18 -37 -5 -29 -223 -433 -268 -497 -33 -47 -68 -62 -151 -67 -100 -6
-152 3 -146 26 3 9 75 123 160 252 85 129 162 249 173 265 10 17 25 35 34 40
29 18 139 29 180 18z m-883 -54 c17 -19 19 -41 22 -188 3 -104 0 -182 -7 -209
-13 -47 -52 -97 -220 -287 -64 -71 -147 -165 -185 -208 -62 -71 -108 -107
-135 -107 -6 0 -18 12 -28 26 -15 24 -17 56 -14 297 2 226 5 277 18 306 11 23
53 61 132 119 64 47 162 119 218 161 94 70 158 111 174 111 3 0 14 -9 25 -21z
m-1582 -366 c7 -26 39 -174 77 -354 l32 -156 -20 -39 c-10 -21 -24 -39 -29
-40 -11 -3 -310 399 -305 412 3 10 222 192 233 193 4 1 9 -7 12 -16z m-984
-238 c69 -9 135 -18 148 -21 15 -3 50 -46 112 -140 50 -74 90 -139 90 -143 0
-5 -78 -80 -172 -167 -95 -87 -196 -180 -224 -206 l-51 -48 -159 69 c-87 37
-221 94 -296 126 -76 31 -138 61 -138 66 0 5 25 69 55 141 54 131 56 134 147
225 l93 92 130 9 c72 5 132 10 135 11 2 0 61 -6 130 -14z m1618 -197 l-3 -173
-85 0 -85 0 -3 162 -2 161 57 7 c32 4 63 8 68 10 6 2 20 4 33 4 l22 1 -2 -172z
m-2548 129 c0 -2 -20 -39 -44 -82 -25 -43 -58 -102 -73 -131 -15 -30 -32 -54
-36 -54 -5 0 -92 35 -193 77 l-184 77 0 35 c0 20 3 46 6 59 l6 22 259 0 c143
0 259 -1 259 -3z m3808 -335 c7 -5 10 -16 6 -26 -18 -47 -217 -382 -232 -390
-17 -10 -178 -10 -225 0 -23 5 -27 9 -21 27 9 30 251 384 267 390 20 9 191 7
205 -1z m-2118 -211 c55 -72 100 -133 99 -138 0 -4 -136 -98 -302 -208 -165
-110 -333 -222 -372 -248 l-70 -48 290 7 290 7 65 45 c36 26 96 68 134 94 l70
48 137 0 138 0 51 -85 50 -86 0 -723 c0 -397 -2 -725 -4 -727 -3 -2 -119 15
-258 38 -139 23 -275 45 -302 48 -27 3 -53 8 -56 10 -4 2 -52 9 -106 14 -54 5
-193 21 -309 35 -237 28 -251 30 -575 50 -253 17 -687 20 -865 7 -132 -10
-117 -21 -204 154 -130 261 -189 535 -198 928 l-6 217 151 0 151 0 112 138
c61 75 139 172 173 214 33 42 66 77 72 77 6 1 91 -33 190 -75 98 -41 203 -85
232 -96 28 -11 52 -24 52 -28 0 -4 -47 -68 -105 -141 -57 -74 -104 -136 -105
-139 0 -3 90 -4 200 -3 l199 1 302 259 c166 142 361 309 432 371 71 61 133
112 138 112 4 0 53 -58 109 -129z m-2137 78 c95 -19 117 -26 114 -39 -2 -8
-35 -86 -73 -172 l-69 -158 -72 0 -73 0 0 150 c0 172 13 253 38 246 10 -2 70
-14 135 -27z m6147 -161 c35 -18 51 -35 70 -73 25 -50 25 -52 31 -415 5 -284
4 -386 -7 -458 -51 -345 -187 -750 -387 -1152 l-102 -205 -45 -7 c-118 -17
-573 -7 -990 22 -80 6 -179 12 -220 15 -243 17 -1055 103 -1138 121 l-22 4 2
757 3 756 25 8 c14 4 84 23 155 43 72 19 238 64 370 101 132 36 299 82 370
101 72 20 152 42 180 49 27 8 50 13 51 12 1 -1 28 -42 60 -92 97 -152 140
-201 194 -224 57 -25 88 -26 134 -7 77 32 69 108 -24 238 -33 45 -59 90 -58
98 2 10 48 24 148 47 80 18 162 35 184 38 21 3 67 12 103 20 35 8 76 15 91 15
73 -1 177 -84 318 -256 46 -56 91 -105 100 -108 48 -18 200 3 252 35 33 20 28
40 -31 115 -196 256 -192 324 23 400 81 29 105 30 160 2z"/>
<path d="M12350 4565 c-36 -7 -96 -16 -135 -20 -38 -3 -131 -15 -205 -25 -485
-68 -1143 -74 -2020 -19 -650 41 -895 47 -1665 44 -407 -2 -747 -6 -755 -9 -8
-3 -87 -10 -175 -16 -187 -13 -688 -60 -694 -65 -2 -2 14 -25 36 -50 l40 -47
174 1 c196 2 601 -14 789 -29 373 -31 791 -95 1335 -205 193 -39 547 -102 725
-130 91 -14 176 -28 190 -30 56 -9 480 -55 555 -60 312 -21 444 -25 780 -24
209 1 397 2 418 4 33 2 56 17 153 99 163 139 448 446 529 569 20 31 21 31 -75
12z"/>
<path d="M7030 4092 c299 -276 547 -449 880 -615 402 -201 786 -312 1270 -368
159 -19 557 -16 725 5 546 68 981 211 1448 479 59 33 107 64 107 67 0 3 -51 2
-112 -3 -254 -19 -836 9 -1193 58 -356 49 -1022 158 -1229 201 -37 8 -89 17
-115 19 -25 3 -143 21 -261 41 -118 19 -269 44 -335 54 -66 11 -208 29 -315
40 -107 12 -271 29 -365 40 -93 10 -249 24 -345 30 -96 6 -188 13 -205 15 -26
5 -21 -2 45 -63z"/>
<path d="M13666 2392 c-30 -16 -79 -29 -132 -35 l-84 -11 0 -72 c0 -69 1 -74
27 -86 38 -19 65 -60 74 -115 11 -67 11 -323 0 -323 -5 0 -26 20 -46 45 -95
113 -250 112 -367 -2 -216 -212 -220 -855 -6 -1098 77 -88 208 -121 297 -76
38 20 100 81 121 120 20 38 30 22 30 -49 l0 -70 148 0 148 0 0 74 c1 73 0 74
-29 87 -45 20 -67 57 -77 130 -5 35 -10 389 -10 787 l0 722 -22 -1 c-13 -1
-45 -13 -72 -27z m-223 -726 c18 -7 52 -35 75 -61 l42 -48 0 -328 0 -328 -44
-45 c-120 -124 -239 -73 -293 124 -25 93 -25 416 1 510 24 90 54 137 101 166
46 27 72 30 118 10z"/>
<path d="M5234 2263 c-32 -82 -58 -150 -57 -153 1 -3 15 -10 31 -17 29 -12 30
-11 67 43 75 108 166 162 292 171 l73 6 0 -780 0 -780 -31 -24 c-17 -13 -47
-29 -67 -35 -35 -10 -37 -13 -40 -57 l-3 -47 275 0 276 0 0 45 c0 28 -5 47
-12 49 -7 2 -39 12 -70 21 l-58 17 0 784 c0 431 0 787 0 792 1 12 134 7 171
-8 68 -26 133 -75 175 -132 23 -32 44 -63 46 -68 2 -7 16 -6 39 4 l36 15 -60
151 -61 150 -482 0 -482 0 -58 -147z"/>
<path d="M8286 2313 c-26 -13 -80 -29 -121 -36 l-75 -12 0 -70 c0 -68 1 -70
30 -83 67 -30 65 -1 68 -784 l3 -708 63 0 c59 0 64 2 70 25 3 13 11 36 16 50
l10 26 52 -42 c29 -23 73 -50 98 -61 54 -23 143 -25 194 -4 48 20 119 93 150
155 62 122 103 393 85 561 -27 252 -103 402 -235 464 -97 46 -193 26 -273 -58
-19 -20 -39 -36 -43 -36 -4 0 -8 141 -8 314 0 357 4 344 -84 299z m313 -703
c84 -48 112 -135 118 -367 6 -194 -5 -281 -43 -360 -33 -70 -74 -103 -125
-103 -51 0 -86 19 -132 69 l-37 41 0 309 0 308 30 41 c32 44 90 81 129 82 13
0 40 -9 60 -20z"/>
<path d="M10795 2317 c-44 -22 -142 -46 -192 -47 l-33 0 0 -70 c0 -64 2 -71
23 -79 35 -13 74 -58 81 -92 10 -53 7 -1161 -4 -1200 -11 -39 -44 -75 -75 -81
-18 -3 -20 -12 -23 -81 l-3 -77 216 0 215 0 0 73 c0 71 -1 72 -30 85 -68 30
-65 -5 -68 835 l-3 757 -32 -1 c-18 -1 -50 -10 -72 -22z"/>
<path d="M10369 1757 c-47 -18 -93 -50 -150 -104 l-46 -45 -7 71 -7 71 -38 0
c-21 0 -58 -9 -82 -19 -24 -10 -69 -22 -99 -26 -117 -13 -110 -8 -110 -83 l0
-67 39 -16 c75 -32 76 -35 79 -374 2 -196 0 -313 -7 -337 -12 -40 -62 -88 -92
-88 -17 0 -19 -8 -19 -75 l0 -75 250 0 250 0 0 70 0 70 -39 16 c-22 9 -47 27
-56 40 -25 39 -34 151 -35 425 0 252 0 256 23 277 48 45 70 45 153 1 86 -46
114 -46 158 -1 45 48 51 157 13 216 -37 56 -111 78 -178 53z"/>
<path d="M12570 1743 c-54 -18 -120 -46 -120 -52 0 -4 -12 -14 -27 -23 -16
-10 -44 -31 -63 -48 l-35 -30 -3 75 c-3 70 -4 75 -25 75 -12 0 -31 -6 -42 -13
-27 -18 -103 -38 -173 -46 l-57 -6 -3 -65 c-2 -64 -2 -65 30 -80 17 -8 41 -28
52 -43 20 -27 21 -41 21 -351 0 -360 0 -363 -71 -392 l-35 -15 3 -67 3 -67
203 -3 202 -2 0 67 c0 60 -3 69 -22 78 -66 30 -77 89 -77 446 l-1 247 54 55
c84 85 167 104 218 50 l23 -25 3 -338 c3 -374 1 -395 -58 -428 -29 -16 -30
-20 -30 -84 l0 -68 200 0 200 0 0 73 c0 71 -1 72 -33 87 -20 9 -39 30 -52 55
-18 37 -20 70 -25 395 -7 394 -12 428 -74 491 -49 50 -126 72 -186 52z"/>
<path d="M11335 1716 c-144 -36 -225 -135 -225 -276 0 -61 3 -71 29 -99 22
-23 38 -31 64 -31 47 0 73 37 93 129 25 121 43 141 127 141 95 0 127 -46 132
-185 2 -52 0 -97 -4 -99 -4 -3 -52 -15 -107 -26 -54 -12 -128 -36 -163 -53
-77 -37 -155 -111 -181 -169 -73 -168 -24 -370 103 -423 99 -41 196 -26 309
48 l67 44 42 -44 c91 -95 163 -100 257 -15 17 16 32 33 32 38 0 5 -10 28 -22
51 -20 37 -25 41 -53 36 -59 -9 -59 -6 -66 376 -4 290 -8 353 -22 390 -19 48
-65 105 -111 137 -61 42 -199 55 -301 30z m218 -700 c-1 -129 -3 -140 -24
-162 -103 -109 -251 -44 -236 104 9 87 54 135 170 178 96 36 92 40 90 -120z"/>
<path d="M6375 1698 c-22 -4 -69 -14 -105 -22 -36 -9 -80 -16 -97 -16 -32 0
-33 -2 -33 -40 0 -32 4 -40 18 -40 10 0 29 -12 43 -26 l24 -26 5 -386 c3 -213
9 -395 14 -406 8 -15 6 -17 -11 -12 -15 5 -22 1 -26 -14 -3 -13 -17 -22 -36
-26 -29 -6 -31 -9 -31 -50 l0 -44 200 0 200 0 0 44 c0 42 -2 44 -33 50 -22 4
-39 16 -50 35 -15 26 -17 74 -17 508 0 377 -3 480 -12 479 -7 0 -31 -4 -53 -8z"/>
<path d="M7150 1696 c-44 -12 -183 -78 -207 -98 -10 -8 -13 2 -13 46 0 66 -2
66 -98 36 -35 -11 -79 -20 -97 -20 -72 0 -93 -10 -97 -46 -3 -29 -1 -34 23
-39 40 -9 71 -49 80 -102 10 -61 11 -754 1 -769 -6 -10 -77 -29 -94 -26 -5 1
-8 -18 -8 -43 l0 -45 201 0 200 0 -3 43 c-3 41 -4 42 -45 51 l-43 9 -2 401 -3
401 22 21 c44 41 119 74 173 75 44 1 56 -3 78 -25 l27 -26 3 -408 2 -407 -39
-27 c-22 -16 -44 -28 -50 -28 -6 0 -11 -18 -11 -40 l0 -40 196 0 195 0 -3 41
c-3 38 -6 43 -43 57 -22 8 -41 16 -43 17 -1 1 -4 181 -6 398 l-3 397 51 34
c67 46 146 71 182 59 15 -5 37 -22 48 -37 20 -26 21 -41 24 -419 l3 -392 -28
-33 c-15 -18 -37 -34 -48 -36 -16 -2 -21 -12 -23 -44 l-3 -42 205 0 206 0 0
45 c0 38 -3 45 -19 45 -33 0 -51 11 -69 44 -15 27 -18 79 -22 431 -6 444 -6
443 -74 502 -52 46 -90 55 -181 44 -59 -7 -98 -20 -168 -55 l-91 -45 -29 35
c-16 19 -41 40 -55 48 -40 20 -150 26 -202 12z"/>
<path d="M9345 1703 c-87 -21 -200 -113 -249 -204 -111 -202 -49 -577 130
-795 91 -112 257 -136 386 -56 99 62 165 169 193 315 13 66 12 68 -9 76 -60
23 -66 23 -66 3 0 -37 -38 -143 -66 -183 -39 -56 -98 -89 -161 -89 -102 0
-164 78 -224 286 -17 58 -29 108 -26 110 2 2 107 45 233 95 126 50 230 92 231
93 1 1 -4 24 -12 51 -61 205 -214 332 -360 298z m77 -176 c29 -24 82 -128 70
-138 -14 -12 -252 -102 -257 -97 -9 9 -18 126 -11 151 8 32 53 86 80 97 39 16
90 10 118 -13z"/>
</g>
</svg>
